<?xml version="1.0" standalone="no"?>
<!DOCTYPE svg PUBLIC "-//W3C//DTD SVG 20010904//EN"
 "http://www.w3.org/TR/2001/REC-SVG-20010904/DTD/svg10.dtd">
<svg version="1.0" xmlns="http://www.w3.org/2000/svg"
 width="1268.000000pt" height="256.000000pt" viewBox="0 0 1268.000000 256.000000"
 preserveAspectRatio="xMidYMid meet">

<g transform="translate(0.000000,256.000000) scale(0.100000,-0.100000)"
fill="#000000" stroke="none">
<path d="M460 2003 c-164 -27 -325 -145 -396 -288 -82 -166 -83 -335 -3 -502
93 -195 284 -305 529 -304 156 1 286 47 385 136 l50 45 -79 75 -78 75 -39 -34
c-136 -124 -349 -121 -479 6 -132 127 -131 366 2 497 60 60 122 84 223 89 109
5 178 -17 248 -78 l45 -40 79 74 78 74 -42 39 c-105 97 -237 144 -402 142 -53
-1 -107 -4 -121 -6z"/>
<path d="M7190 1996 c-313 -80 -489 -371 -411 -677 49 -193 203 -342 406 -394
78 -20 235 -20 320 0 197 45 360 201 410 390 19 76 19 214 0 290 -45 172 -179
311 -362 376 -76 27 -281 36 -363 15z m287 -218 c77 -29 152 -104 181 -181 29
-78 30 -195 2 -271 -55 -147 -208 -231 -372 -205 -160 26 -265 146 -276 314
-10 161 75 298 216 350 59 22 181 19 249 -7z"/>
<path d="M3300 1562 c0 -391 6 -460 45 -528 48 -82 169 -132 297 -121 59 5
158 37 158 51 0 3 -10 31 -21 63 -12 32 -26 68 -30 80 -8 21 -10 21 -36 8 -33
-17 -96 -20 -124 -5 -42 23 -49 58 -49 255 l0 185 100 0 100 0 0 90 0 90 -100
0 -100 0 0 100 0 100 -120 0 -120 0 0 -368z"/>
<path d="M5962 1528 c5 -454 6 -464 79 -537 55 -55 121 -76 234 -76 71 1 100
5 139 23 28 13 46 27 44 34 -3 7 -15 44 -28 81 -21 60 -27 67 -45 62 -86 -26
-138 -17 -165 28 -18 29 -20 51 -20 220 l0 187 105 0 106 0 -3 88 -3 87 -102
3 -103 3 0 99 0 100 -121 0 -120 0 3 -402z"/>
<path d="M9220 1537 c0 -433 3 -460 60 -529 17 -20 56 -49 88 -65 51 -25 67
-28 157 -28 81 0 109 4 147 22 l48 22 -26 68 c-15 37 -29 76 -31 85 -5 16 -8
16 -34 3 -48 -25 -106 -19 -140 14 l-29 29 0 196 0 196 100 0 100 0 0 90 0 90
-100 0 -100 0 0 100 0 100 -120 0 -120 0 0 -393z"/>
<path d="M1453 1745 c-131 -29 -233 -106 -290 -223 -37 -74 -38 -79 -38 -187
0 -108 1 -113 38 -187 106 -216 385 -300 622 -189 160 74 242 216 233 402 -4
76 -9 97 -41 162 -91 184 -298 271 -524 222z m222 -208 c21 -12 53 -42 70 -65
28 -41 30 -49 30 -137 0 -88 -2 -96 -30 -137 -61 -86 -181 -116 -273 -69 -148
76 -150 330 -3 408 60 31 150 32 206 0z"/>
<path d="M2610 1745 c-54 -16 -134 -56 -145 -75 -14 -23 -25 -7 -25 35 l0 45
-110 0 -110 0 0 -415 0 -415 114 0 114 0 4 243 c4 258 8 279 56 331 36 39 81
56 144 56 67 0 116 -24 143 -70 18 -32 20 -55 23 -297 l3 -263 120 0 121 0 -4
293 c-4 275 -5 295 -26 349 -28 70 -88 133 -157 164 -69 32 -188 40 -265 19z"/>
<path d="M4200 1749 c-161 -32 -287 -172 -309 -345 -29 -238 87 -425 299 -480
118 -30 271 -1 331 62 32 34 39 30 39 -21 l0 -45 110 0 110 0 0 415 0 416
-117 -3 -118 -3 -3 -38 -3 -37 -44 30 c-76 52 -186 70 -295 49z m223 -203 c65
-27 113 -93 123 -170 19 -132 -52 -243 -167 -264 -142 -26 -250 70 -250 222 0
139 77 225 204 226 32 0 72 -6 90 -14z"/>
<path d="M5314 1746 c-131 -30 -250 -121 -302 -233 -25 -53 -27 -68 -27 -178
0 -110 2 -125 27 -178 33 -70 116 -156 186 -191 158 -80 371 -70 500 24 42 30
107 114 98 128 -2 4 -43 27 -90 52 l-85 45 -30 -36 c-41 -49 -90 -71 -161 -70
-132 0 -210 85 -210 226 0 143 77 224 213 225 70 0 124 -25 162 -74 l26 -34
82 44 c45 25 86 49 90 53 13 13 -48 97 -95 131 -93 68 -255 95 -384 66z"/>
<path d="M8132 1463 c4 -272 5 -291 27 -348 16 -42 40 -76 76 -111 68 -68 129
-89 250 -89 98 1 157 20 218 71 l32 27 3 -46 3 -47 115 0 114 0 0 415 0 415
-120 0 -120 0 0 -227 c0 -243 -6 -287 -47 -342 -32 -42 -78 -61 -145 -61 -68
0 -116 25 -142 76 -19 36 -21 60 -24 297 l-3 257 -121 0 -120 0 4 -287z"/>
</g>
</svg>
